<?xml version="1.0" encoding="utf-8"?>
<svg x="0px" y="58.4203px" width="1000px" height="331.697px" viewBox="0 58.4203 1000 331.697" xmlns="http://www.w3.org/2000/svg" xmlns:xlink="http://www.w3.org/1999/xlink">
  <!--Generated by AMDN-->
  <g id="BG">
    <g id="Rectangle">
      <path style="fill:#efefef;fill-opacity:1;fill-rule:nonzero;opacity:1;stroke:none;" d="M981.558,348.845 C981.558,359.89,972.603,368.845,961.558,368.845 C961.558,368.845,32.8028,368.845,32.8028,368.845 C21.7571,368.845,12.8028,359.89,12.8028,348.845 C12.8028,348.845,12.8028,98.9949,12.8028,98.9949 C12.8028,87.9492,21.7571,78.9949,32.8028,78.9949 C32.8028,78.9949,961.558,78.9949,961.558,78.9949 C972.603,78.9949,981.558,87.9492,981.558,98.9949 C981.558,98.9949,981.558,348.845,981.558,348.845 z"/>
      <path style="fill:#303030;fill-opacity:1;fill-rule:nonzero;opacity:1;stroke:none;" d="M981.558,348.845 C981.558,359.89,972.603,368.845,961.558,368.845 C961.558,368.845,32.8028,368.845,32.8028,368.845 C21.7571,368.845,12.8028,359.89,12.8028,348.845 C12.8028,348.845,12.8028,98.9949,12.8028,98.9949 C12.8028,87.9492,21.7571,78.9949,32.8028,78.9949 C32.8028,78.9949,961.558,78.9949,961.558,78.9949 C972.603,78.9949,981.558,87.9492,981.558,98.9949 C981.558,98.9949,981.558,348.845,981.558,348.845 z"/>
    </g>
  </g>
  <g id="Text">
    <g id="Text-1">
      <g id="Text-2">
        <path style="fill:#ffffff;fill-opacity:1;fill-rule:nonzero;opacity:1;stroke:none;" d="M69.5869,289.495 C69.5869,289.495,69.5869,174.494,69.5869,174.494 C69.5869,174.494,137.383,174.494,137.383,174.494 C137.383,174.494,137.383,185.264,137.383,185.264 C137.383,185.264,82.7797,185.264,82.7797,185.264 C82.7797,185.264,82.7797,224.693,82.7797,224.693 C82.7797,224.693,132.619,224.693,132.619,224.693 C132.619,224.693,132.619,235.28,132.619,235.28 C132.619,235.28,82.7797,235.28,82.7797,235.28 C82.7797,235.28,82.7797,278.725,82.7797,278.725 C82.7797,278.725,137.933,278.725,137.933,278.725 C137.933,278.725,137.933,289.495,137.933,289.495 C137.933,289.495,69.5869,289.495,69.5869,289.495 z M147.461,289.495 C147.461,289.495,177.328,246.05,177.328,246.05 C177.328,246.05,148.927,203.7,148.927,203.7 C148.927,203.7,163.402,203.7,163.402,203.7 C163.402,203.7,178.427,226.701,178.427,226.701 C178.427,226.701,185.207,238.018,185.207,238.018 C185.207,238.018,192.17,226.153,192.17,226.153 C192.17,226.153,206.279,203.7,206.279,203.7 C206.279,203.7,220.205,203.7,220.205,203.7 C220.205,203.7,191.987,246.05,191.987,246.05 C191.987,246.05,222.22,289.495,222.22,289.495 C222.22,289.495,207.562,289.495,207.562,289.495 C207.562,289.495,192.72,267.955,192.72,267.955 C192.72,267.955,184.291,254.447,184.291,254.447 C184.291,254.447,176.229,267.59,176.229,267.59 C176.229,267.59,161.753,289.495,161.753,289.495 C161.753,289.495,147.461,289.495,147.461,289.495 z M237.062,331.48 C237.062,331.48,237.062,202.422,237.062,202.422 C237.062,202.422,247.69,202.422,247.69,202.422 C247.69,202.422,249.705,213.558,249.705,213.558 C252.759,210.637,256.393,208.051,260.608,205.799 C264.822,203.548,269.861,202.422,275.724,202.422 C286.596,202.422,295.452,206.073,302.293,213.375 C309.134,220.677,312.554,231.082,312.554,244.59 C312.554,255.299,310.508,264.061,306.416,270.876 C302.324,277.691,297.071,282.741,290.658,286.027 C284.245,289.312,277.496,290.955,270.41,290.955 C262.226,290.955,255.385,289.008,249.888,285.114 C249.888,285.114,249.888,331.48,249.888,331.48 C249.888,331.48,237.062,331.48,237.062,331.48 z M268.761,280.915 C273.892,280.915,278.778,279.759,283.42,277.447 C288.062,275.135,291.849,271.332,294.781,266.038 C297.712,260.745,299.178,253.656,299.178,244.772 C299.178,234.793,297.04,226.974,292.765,221.316 C288.49,215.657,281.893,212.827,272.976,212.827 C267.723,212.827,263.051,214.166,258.958,216.843 C254.866,219.521,251.843,222.137,249.888,224.693 C249.888,224.693,249.888,274.892,249.888,274.892 C252.698,276.96,255.721,278.482,258.958,279.455 C262.196,280.429,265.463,280.915,268.761,280.915 z M332.71,289.495 C332.71,289.495,332.71,203.7,332.71,203.7 C332.71,203.7,341.871,203.7,341.871,203.7 C341.871,203.7,344.437,220.859,344.437,220.859 C346.513,215.505,349.995,211.093,354.881,207.625 C359.767,204.157,365.325,202.422,371.555,202.422 C374.609,202.422,377.205,202.696,379.343,203.244 C381.48,203.792,383.282,204.37,384.748,204.978 C384.748,204.978,382.183,216.113,382.183,216.113 C380.717,215.505,379.098,214.957,377.327,214.47 C375.556,213.983,373.449,213.74,371.006,213.74 C364.043,213.74,358.057,216.204,353.049,221.133 C348.04,226.062,345.536,233.455,345.536,243.312 C345.536,243.312,345.536,289.495,345.536,289.495 C345.536,289.495,332.71,289.495,332.71,289.495 z M433.671,290.955 C425.731,290.955,418.463,289.434,411.867,286.392 C405.27,283.349,400.017,278.573,396.108,272.062 C392.199,265.552,390.245,257.124,390.245,246.78 C390.245,237.775,391.925,229.956,395.284,223.324 C398.643,216.691,403.346,211.55,409.393,207.899 C415.44,204.248,422.494,202.422,430.556,202.422 C437.519,202.422,443.596,204.004,448.788,207.169 C453.98,210.333,458.011,214.714,460.881,220.312 C463.752,225.91,465.187,232.481,465.187,240.026 C465.187,240.026,465.187,247.51,465.187,247.51 C465.187,247.51,403.621,247.51,403.621,247.51 C403.621,247.51,403.621,249.153,403.621,249.153 C403.621,259.132,406.37,266.921,411.867,272.519 C417.363,278.117,424.815,280.915,434.221,280.915 C438.496,280.915,442.497,280.581,446.223,279.911 C449.948,279.242,453.705,278.117,457.492,276.534 C457.492,276.534,460.24,286.209,460.24,286.209 C456.942,287.67,452.941,288.826,448.238,289.677 C443.535,290.529,438.68,290.955,433.671,290.955 z M403.987,238.018 C403.987,238.018,451.811,237.836,451.811,237.836 C451.811,233.333,451.078,229.134,449.613,225.24 C448.147,221.346,445.795,218.182,442.558,215.748 C439.321,213.314,435.076,212.097,429.823,212.097 C422.738,212.097,416.905,214.44,412.325,219.125 C407.744,223.81,404.965,230.108,403.987,238.018 z M506.781,290.955 C501.284,290.955,496.245,290.499,491.665,289.586 C487.084,288.674,483.083,287.426,479.663,285.844 C479.663,285.844,482.778,275.804,482.778,275.804 C486.198,277.386,489.802,278.634,493.589,279.546 C497.375,280.459,501.468,280.915,505.865,280.915 C511.973,280.915,516.829,279.759,520.432,277.447 C524.036,275.135,525.838,271.606,525.838,266.86 C525.838,262.966,524.433,259.893,521.623,257.641 C518.814,255.39,514.355,253.352,508.247,251.526 C508.247,251.526,502.567,249.701,502.567,249.701 C494.993,247.267,489.344,244.133,485.618,240.3 C481.892,236.467,480.029,231.751,480.029,226.153 C480.029,218.973,482.839,213.223,488.458,208.903 C494.077,204.583,501.223,202.422,509.896,202.422 C513.927,202.422,518.142,202.788,522.539,203.518 C526.937,204.248,531.029,205.465,534.816,207.169 C534.816,207.169,531.884,217.026,531.884,217.026 C528.22,215.322,524.769,214.136,521.532,213.466 C518.294,212.797,514.905,212.462,511.362,212.462 C505.254,212.462,500.643,213.679,497.528,216.113 C494.413,218.547,492.856,221.711,492.856,225.605 C492.856,229.013,494.047,231.72,496.429,233.728 C498.811,235.736,503.361,237.775,510.079,239.844 C510.079,239.844,515.576,241.486,515.576,241.486 C523.15,243.677,528.891,246.75,532.8,250.705 C536.709,254.66,538.664,259.741,538.664,265.947 C538.664,273.249,535.915,279.242,530.418,283.927 C524.921,288.613,517.042,290.955,506.781,290.955 z M580.258,290.955 C574.761,290.955,569.722,290.499,565.141,289.586 C560.56,288.674,556.56,287.426,553.139,285.844 C553.139,285.844,556.254,275.804,556.254,275.804 C559.675,277.386,563.278,278.634,567.065,279.546 C570.852,280.459,574.944,280.915,579.342,280.915 C585.449,280.915,590.305,279.759,593.909,277.447 C597.512,275.135,599.314,271.606,599.314,266.86 C599.314,262.966,597.909,259.893,595.1,257.641 C592.29,255.39,587.831,253.352,581.724,251.526 C581.724,251.526,576.043,249.701,576.043,249.701 C568.47,247.267,562.82,244.133,559.094,240.3 C555.369,236.467,553.506,231.751,553.506,226.153 C553.506,218.973,556.315,213.223,561.935,208.903 C567.554,204.583,574.7,202.422,583.373,202.422 C587.404,202.422,591.618,202.788,596.016,203.518 C600.413,204.248,604.506,205.465,608.292,207.169 C608.292,207.169,605.361,217.026,605.361,217.026 C601.696,215.322,598.245,214.136,595.008,213.466 C591.771,212.797,588.381,212.462,584.839,212.462 C578.731,212.462,574.119,213.679,571.004,216.113 C567.89,218.547,566.332,221.711,566.332,225.605 C566.332,229.013,567.523,231.72,569.905,233.728 C572.287,235.736,576.837,237.775,583.556,239.844 C583.556,239.844,589.053,241.486,589.053,241.486 C596.627,243.677,602.368,246.75,606.277,250.705 C610.186,254.66,612.14,259.741,612.14,265.947 C612.14,273.249,609.392,279.242,603.895,283.927 C598.398,288.613,590.519,290.955,580.258,290.955 z M640.725,181.613 C638.404,181.613,636.358,180.822,634.586,179.24 C632.815,177.658,631.93,175.589,631.93,173.033 C631.93,170.356,632.785,168.196,634.495,166.553 C636.205,164.91,638.221,164.089,640.542,164.089 C642.862,164.089,644.878,164.88,646.588,166.462 C648.298,168.044,649.153,170.234,649.153,173.033 C649.153,175.589,648.298,177.658,646.588,179.24 C644.878,180.822,642.924,181.613,640.725,181.613 z M634.128,289.495 C634.128,289.495,634.128,203.7,634.128,203.7 C634.128,203.7,646.955,203.7,646.955,203.7 C646.955,203.7,646.955,289.495,646.955,289.495 C646.955,289.495,634.128,289.495,634.128,289.495 z M708.704,290.955 C701.131,290.955,694.32,289.312,688.274,286.027 C682.227,282.741,677.463,277.843,673.982,271.332 C670.5,264.821,668.759,256.881,668.759,247.51 C668.759,237.896,670.561,229.743,674.165,223.05 C677.768,216.356,682.655,211.245,688.823,207.716 C694.992,204.187,701.864,202.422,709.437,202.422 C717.011,202.422,723.79,204.065,729.776,207.351 C735.762,210.637,740.495,215.474,743.977,221.863 C747.458,228.252,749.199,236.193,749.199,245.685 C749.199,255.299,747.427,263.483,743.885,270.237 C740.342,276.991,735.517,282.132,729.41,285.662 C723.302,289.191,716.4,290.955,708.704,290.955 z M709.254,280.915 C713.896,280.915,718.232,279.851,722.263,277.721 C726.295,275.591,729.562,272.001,732.067,266.951 C734.571,261.901,735.823,255.116,735.823,246.598 C735.823,238.566,734.54,232.025,731.975,226.974 C729.41,221.924,726.081,218.243,721.989,215.931 C717.896,213.618,713.529,212.462,708.888,212.462 C704.368,212.462,700.062,213.558,695.97,215.748 C691.877,217.939,688.549,221.529,685.983,226.518 C683.418,231.507,682.135,238.201,682.135,246.598 C682.135,254.751,683.449,261.353,686.075,266.403 C688.701,271.454,692.091,275.135,696.244,277.447 C700.398,279.759,704.734,280.915,709.254,280.915 z M769.904,289.495 C769.904,289.495,769.904,203.7,769.904,203.7 C769.904,203.7,779.799,203.7,779.799,203.7 C779.799,203.7,781.631,215.565,781.631,215.565 C785.906,211.428,790.457,208.203,795.282,205.891 C800.107,203.579,805.512,202.422,811.498,202.422 C820.293,202.422,827.164,204.887,832.112,209.815 C837.059,214.744,839.533,221.589,839.533,230.351 C839.533,230.351,839.533,289.495,839.533,289.495 C839.533,289.495,826.706,289.495,826.706,289.495 C826.706,289.495,826.706,232.724,826.706,232.724 C826.706,226.883,825.271,222.107,822.4,218.395 C819.53,214.683,814.674,212.827,807.833,212.827 C803.436,212.827,799.038,213.923,794.641,216.113 C790.243,218.304,786.273,221.346,782.73,225.24 C782.73,225.24,782.73,289.495,782.73,289.495 C782.73,289.495,769.904,289.495,769.904,289.495 z M887.173,290.955 C881.676,290.955,876.637,290.499,872.057,289.586 C867.476,288.674,863.475,287.426,860.055,285.844 C860.055,285.844,863.17,275.804,863.17,275.804 C866.59,277.386,870.194,278.634,873.981,279.546 C877.767,280.459,881.86,280.915,886.257,280.915 C892.365,280.915,897.221,279.759,900.824,277.447 C904.428,275.135,906.23,271.606,906.23,266.86 C906.23,262.966,904.825,259.893,902.015,257.641 C899.206,255.39,894.747,253.352,888.639,251.526 C888.639,251.526,882.959,249.701,882.959,249.701 C875.385,247.267,869.736,244.133,866.01,240.3 C862.284,236.467,860.421,231.751,860.421,226.153 C860.421,218.973,863.231,213.223,868.85,208.903 C874.469,204.583,881.615,202.422,890.288,202.422 C894.319,202.422,898.534,202.788,902.931,203.518 C907.329,204.248,911.421,205.465,915.208,207.169 C915.208,207.169,912.276,217.026,912.276,217.026 C908.612,215.322,905.161,214.136,901.924,213.466 C898.687,212.797,895.297,212.462,891.754,212.462 C885.646,212.462,881.035,213.679,877.92,216.113 C874.805,218.547,873.248,221.711,873.248,225.605 C873.248,229.013,874.439,231.72,876.821,233.728 C879.203,235.736,883.753,237.775,890.472,239.844 C890.472,239.844,895.969,241.486,895.969,241.486 C903.542,243.677,909.283,246.75,913.192,250.705 C917.101,254.66,919.056,259.741,919.056,265.947 C919.056,273.249,916.307,279.242,910.81,283.927 C905.313,288.613,897.434,290.955,887.173,290.955 z"/>
        <path style="fill:none;opacity:1;stroke:#ffffff;stroke-linecap:butt;stroke-linejoin:miter;stroke-miterlimit:10;stroke-opacity:1;stroke-width:1;" d="M69.5869,289.495 C69.5869,289.495,69.5869,174.494,69.5869,174.494 C69.5869,174.494,137.383,174.494,137.383,174.494 C137.383,174.494,137.383,185.264,137.383,185.264 C137.383,185.264,82.7797,185.264,82.7797,185.264 C82.7797,185.264,82.7797,224.693,82.7797,224.693 C82.7797,224.693,132.619,224.693,132.619,224.693 C132.619,224.693,132.619,235.28,132.619,235.28 C132.619,235.28,82.7797,235.28,82.7797,235.28 C82.7797,235.28,82.7797,278.725,82.7797,278.725 C82.7797,278.725,137.933,278.725,137.933,278.725 C137.933,278.725,137.933,289.495,137.933,289.495 C137.933,289.495,69.5869,289.495,69.5869,289.495 z M147.461,289.495 C147.461,289.495,177.328,246.05,177.328,246.05 C177.328,246.05,148.927,203.7,148.927,203.7 C148.927,203.7,163.402,203.7,163.402,203.7 C163.402,203.7,178.427,226.701,178.427,226.701 C178.427,226.701,185.207,238.018,185.207,238.018 C185.207,238.018,192.17,226.153,192.17,226.153 C192.17,226.153,206.279,203.7,206.279,203.7 C206.279,203.7,220.205,203.7,220.205,203.7 C220.205,203.7,191.987,246.05,191.987,246.05 C191.987,246.05,222.22,289.495,222.22,289.495 C222.22,289.495,207.562,289.495,207.562,289.495 C207.562,289.495,192.72,267.955,192.72,267.955 C192.72,267.955,184.291,254.447,184.291,254.447 C184.291,254.447,176.229,267.59,176.229,267.59 C176.229,267.59,161.753,289.495,161.753,289.495 C161.753,289.495,147.461,289.495,147.461,289.495 z M237.062,331.48 C237.062,331.48,237.062,202.422,237.062,202.422 C237.062,202.422,247.69,202.422,247.69,202.422 C247.69,202.422,249.705,213.558,249.705,213.558 C252.759,210.637,256.393,208.051,260.608,205.799 C264.822,203.548,269.861,202.422,275.724,202.422 C286.596,202.422,295.452,206.073,302.293,213.375 C309.134,220.677,312.554,231.082,312.554,244.59 C312.554,255.299,310.508,264.061,306.416,270.876 C302.324,277.691,297.071,282.741,290.658,286.027 C284.245,289.312,277.496,290.955,270.41,290.955 C262.226,290.955,255.385,289.008,249.888,285.114 C249.888,285.114,249.888,331.48,249.888,331.48 C249.888,331.48,237.062,331.48,237.062,331.48 z M268.761,280.915 C273.892,280.915,278.778,279.759,283.42,277.447 C288.062,275.135,291.849,271.332,294.781,266.038 C297.712,260.745,299.178,253.656,299.178,244.772 C299.178,234.793,297.04,226.974,292.765,221.316 C288.49,215.657,281.893,212.827,272.976,212.827 C267.723,212.827,263.051,214.166,258.958,216.843 C254.866,219.521,251.843,222.137,249.888,224.693 C249.888,224.693,249.888,274.892,249.888,274.892 C252.698,276.96,255.721,278.482,258.958,279.455 C262.196,280.429,265.463,280.915,268.761,280.915 z M332.71,289.495 C332.71,289.495,332.71,203.7,332.71,203.7 C332.71,203.7,341.871,203.7,341.871,203.7 C341.871,203.7,344.437,220.859,344.437,220.859 C346.513,215.505,349.995,211.093,354.881,207.625 C359.767,204.157,365.325,202.422,371.555,202.422 C374.609,202.422,377.205,202.696,379.343,203.244 C381.48,203.792,383.282,204.37,384.748,204.978 C384.748,204.978,382.183,216.113,382.183,216.113 C380.717,215.505,379.098,214.957,377.327,214.47 C375.556,213.983,373.449,213.74,371.006,213.74 C364.043,213.74,358.057,216.204,353.049,221.133 C348.04,226.062,345.536,233.455,345.536,243.312 C345.536,243.312,345.536,289.495,345.536,289.495 C345.536,289.495,332.71,289.495,332.71,289.495 z M433.671,290.955 C425.731,290.955,418.463,289.434,411.867,286.392 C405.27,283.349,400.017,278.573,396.108,272.062 C392.199,265.552,390.245,257.124,390.245,246.78 C390.245,237.775,391.925,229.956,395.284,223.324 C398.643,216.691,403.346,211.55,409.393,207.899 C415.44,204.248,422.494,202.422,430.556,202.422 C437.519,202.422,443.596,204.004,448.788,207.169 C453.98,210.333,458.011,214.714,460.881,220.312 C463.752,225.91,465.187,232.481,465.187,240.026 C465.187,240.026,465.187,247.51,465.187,247.51 C465.187,247.51,403.621,247.51,403.621,247.51 C403.621,247.51,403.621,249.153,403.621,249.153 C403.621,259.132,406.37,266.921,411.867,272.519 C417.363,278.117,424.815,280.915,434.221,280.915 C438.496,280.915,442.497,280.581,446.223,279.911 C449.948,279.242,453.705,278.117,457.492,276.534 C457.492,276.534,460.24,286.209,460.24,286.209 C456.942,287.67,452.941,288.826,448.238,289.677 C443.535,290.529,438.68,290.955,433.671,290.955 z M403.987,238.018 C403.987,238.018,451.811,237.836,451.811,237.836 C451.811,233.333,451.078,229.134,449.613,225.24 C448.147,221.346,445.795,218.182,442.558,215.748 C439.321,213.314,435.076,212.097,429.823,212.097 C422.738,212.097,416.905,214.44,412.325,219.125 C407.744,223.81,404.965,230.108,403.987,238.018 z M506.781,290.955 C501.284,290.955,496.245,290.499,491.665,289.586 C487.084,288.674,483.083,287.426,479.663,285.844 C479.663,285.844,482.778,275.804,482.778,275.804 C486.198,277.386,489.802,278.634,493.589,279.546 C497.375,280.459,501.468,280.915,505.865,280.915 C511.973,280.915,516.829,279.759,520.432,277.447 C524.036,275.135,525.838,271.606,525.838,266.86 C525.838,262.966,524.433,259.893,521.623,257.641 C518.814,255.39,514.355,253.352,508.247,251.526 C508.247,251.526,502.567,249.701,502.567,249.701 C494.993,247.267,489.344,244.133,485.618,240.3 C481.892,236.467,480.029,231.751,480.029,226.153 C480.029,218.973,482.839,213.223,488.458,208.903 C494.077,204.583,501.223,202.422,509.896,202.422 C513.927,202.422,518.142,202.788,522.539,203.518 C526.937,204.248,531.029,205.465,534.816,207.169 C534.816,207.169,531.884,217.026,531.884,217.026 C528.22,215.322,524.769,214.136,521.532,213.466 C518.294,212.797,514.905,212.462,511.362,212.462 C505.254,212.462,500.643,213.679,497.528,216.113 C494.413,218.547,492.856,221.711,492.856,225.605 C492.856,229.013,494.047,231.72,496.429,233.728 C498.811,235.736,503.361,237.775,510.079,239.844 C510.079,239.844,515.576,241.486,515.576,241.486 C523.15,243.677,528.891,246.75,532.8,250.705 C536.709,254.66,538.664,259.741,538.664,265.947 C538.664,273.249,535.915,279.242,530.418,283.927 C524.921,288.613,517.042,290.955,506.781,290.955 z M580.258,290.955 C574.761,290.955,569.722,290.499,565.141,289.586 C560.56,288.674,556.56,287.426,553.139,285.844 C553.139,285.844,556.254,275.804,556.254,275.804 C559.675,277.386,563.278,278.634,567.065,279.546 C570.852,280.459,574.944,280.915,579.342,280.915 C585.449,280.915,590.305,279.759,593.909,277.447 C597.512,275.135,599.314,271.606,599.314,266.86 C599.314,262.966,597.909,259.893,595.1,257.641 C592.29,255.39,587.831,253.352,581.724,251.526 C581.724,251.526,576.043,249.701,576.043,249.701 C568.47,247.267,562.82,244.133,559.094,240.3 C555.369,236.467,553.506,231.751,553.506,226.153 C553.506,218.973,556.315,213.223,561.935,208.903 C567.554,204.583,574.7,202.422,583.373,202.422 C587.404,202.422,591.618,202.788,596.016,203.518 C600.413,204.248,604.506,205.465,608.292,207.169 C608.292,207.169,605.361,217.026,605.361,217.026 C601.696,215.322,598.245,214.136,595.008,213.466 C591.771,212.797,588.381,212.462,584.839,212.462 C578.731,212.462,574.119,213.679,571.004,216.113 C567.89,218.547,566.332,221.711,566.332,225.605 C566.332,229.013,567.523,231.72,569.905,233.728 C572.287,235.736,576.837,237.775,583.556,239.844 C583.556,239.844,589.053,241.486,589.053,241.486 C596.627,243.677,602.368,246.75,606.277,250.705 C610.186,254.66,612.14,259.741,612.14,265.947 C612.14,273.249,609.392,279.242,603.895,283.927 C598.398,288.613,590.519,290.955,580.258,290.955 z M640.725,181.613 C638.404,181.613,636.358,180.822,634.586,179.24 C632.815,177.658,631.93,175.589,631.93,173.033 C631.93,170.356,632.785,168.196,634.495,166.553 C636.205,164.91,638.221,164.089,640.542,164.089 C642.862,164.089,644.878,164.88,646.588,166.462 C648.298,168.044,649.153,170.234,649.153,173.033 C649.153,175.589,648.298,177.658,646.588,179.24 C644.878,180.822,642.924,181.613,640.725,181.613 z M634.128,289.495 C634.128,289.495,634.128,203.7,634.128,203.7 C634.128,203.7,646.955,203.7,646.955,203.7 C646.955,203.7,646.955,289.495,646.955,289.495 C646.955,289.495,634.128,289.495,634.128,289.495 z M708.704,290.955 C701.131,290.955,694.32,289.312,688.274,286.027 C682.227,282.741,677.463,277.843,673.982,271.332 C670.5,264.821,668.759,256.881,668.759,247.51 C668.759,237.896,670.561,229.743,674.165,223.05 C677.768,216.356,682.655,211.245,688.823,207.716 C694.992,204.187,701.864,202.422,709.437,202.422 C717.011,202.422,723.79,204.065,729.776,207.351 C735.762,210.637,740.495,215.474,743.977,221.863 C747.458,228.252,749.199,236.193,749.199,245.685 C749.199,255.299,747.427,263.483,743.885,270.237 C740.342,276.991,735.517,282.132,729.41,285.662 C723.302,289.191,716.4,290.955,708.704,290.955 z M709.254,280.915 C713.896,280.915,718.232,279.851,722.263,277.721 C726.295,275.591,729.562,272.001,732.067,266.951 C734.571,261.901,735.823,255.116,735.823,246.598 C735.823,238.566,734.54,232.025,731.975,226.974 C729.41,221.924,726.081,218.243,721.989,215.931 C717.896,213.618,713.529,212.462,708.888,212.462 C704.368,212.462,700.062,213.558,695.97,215.748 C691.877,217.939,688.549,221.529,685.983,226.518 C683.418,231.507,682.135,238.201,682.135,246.598 C682.135,254.751,683.449,261.353,686.075,266.403 C688.701,271.454,692.091,275.135,696.244,277.447 C700.398,279.759,704.734,280.915,709.254,280.915 z M769.904,289.495 C769.904,289.495,769.904,203.7,769.904,203.7 C769.904,203.7,779.799,203.7,779.799,203.7 C779.799,203.7,781.631,215.565,781.631,215.565 C785.906,211.428,790.457,208.203,795.282,205.891 C800.107,203.579,805.512,202.422,811.498,202.422 C820.293,202.422,827.164,204.887,832.112,209.815 C837.059,214.744,839.533,221.589,839.533,230.351 C839.533,230.351,839.533,289.495,839.533,289.495 C839.533,289.495,826.706,289.495,826.706,289.495 C826.706,289.495,826.706,232.724,826.706,232.724 C826.706,226.883,825.271,222.107,822.4,218.395 C819.53,214.683,814.674,212.827,807.833,212.827 C803.436,212.827,799.038,213.923,794.641,216.113 C790.243,218.304,786.273,221.346,782.73,225.24 C782.73,225.24,782.73,289.495,782.73,289.495 C782.73,289.495,769.904,289.495,769.904,289.495 z M887.173,290.955 C881.676,290.955,876.637,290.499,872.057,289.586 C867.476,288.674,863.475,287.426,860.055,285.844 C860.055,285.844,863.17,275.804,863.17,275.804 C866.59,277.386,870.194,278.634,873.981,279.546 C877.767,280.459,881.86,280.915,886.257,280.915 C892.365,280.915,897.221,279.759,900.824,277.447 C904.428,275.135,906.23,271.606,906.23,266.86 C906.23,262.966,904.825,259.893,902.015,257.641 C899.206,255.39,894.747,253.352,888.639,251.526 C888.639,251.526,882.959,249.701,882.959,249.701 C875.385,247.267,869.736,244.133,866.01,240.3 C862.284,236.467,860.421,231.751,860.421,226.153 C860.421,218.973,863.231,213.223,868.85,208.903 C874.469,204.583,881.615,202.422,890.288,202.422 C894.319,202.422,898.534,202.788,902.931,203.518 C907.329,204.248,911.421,205.465,915.208,207.169 C915.208,207.169,912.276,217.026,912.276,217.026 C908.612,215.322,905.161,214.136,901.924,213.466 C898.687,212.797,895.297,212.462,891.754,212.462 C885.646,212.462,881.035,213.679,877.92,216.113 C874.805,218.547,873.248,221.711,873.248,225.605 C873.248,229.013,874.439,231.72,876.821,233.728 C879.203,235.736,883.753,237.775,890.472,239.844 C890.472,239.844,895.969,241.486,895.969,241.486 C903.542,243.677,909.283,246.75,913.192,250.705 C917.101,254.66,919.056,259.741,919.056,265.947 C919.056,273.249,916.307,279.242,910.81,283.927 C905.313,288.613,897.434,290.955,887.173,290.955 z"/>
      </g>
    </g>
  </g>
  <g id="Faces">
    <g id="Group">
      <path id="Path_18" style="fill:#ffffff;fill-opacity:1;fill-rule:evenodd;opacity:1;stroke:none;" d="M695.987,229.026 C699.073,229.026,701.576,231.528,701.576,234.615 C701.576,237.701,699.073,240.203,695.987,240.203 C692.901,240.203,690.399,237.701,690.399,234.615 C690.399,231.528,692.901,229.026,695.987,229.026 z"/>
      <path id="Path_19" style="fill:#ffffff;fill-opacity:1;fill-rule:nonzero;opacity:1;stroke:none;" d="M695.987,229.483 C698.819,229.482,701.12,231.782,701.118,234.615 C701.12,237.447,698.819,239.747,695.987,239.746 C693.155,239.747,690.855,237.447,690.856,234.615 C690.855,231.782,693.155,229.482,695.987,229.483 z M695.987,228.569 C692.647,228.57,689.943,231.274,689.941,234.615 C689.943,237.955,692.647,240.659,695.987,240.66 C699.327,240.659,702.031,237.955,702.033,234.615 C702.031,231.274,699.327,228.57,695.987,228.569 z"/>
    </g>
    <g id="Group-1">
      <path id="Path_20" style="fill:#ffffff;fill-opacity:1;fill-rule:evenodd;opacity:1;stroke:none;" d="M718.875,228.963 C721.961,228.963,724.463,231.465,724.463,234.551 C724.463,237.638,721.961,240.14,718.875,240.14 C715.788,240.14,713.286,237.638,713.286,234.551 C713.286,231.465,715.788,228.963,718.875,228.963 z"/>
      <path id="Path_21" style="fill:#ffffff;fill-opacity:1;fill-rule:nonzero;opacity:1;stroke:none;" d="M718.875,229.42 C721.707,229.419,724.007,231.719,724.006,234.551 C724.007,237.384,721.707,239.684,718.875,239.682 C716.042,239.684,713.742,237.384,713.744,234.551 C713.742,231.719,716.042,229.419,718.875,229.42 z M718.875,228.505 C715.535,228.507,712.83,231.211,712.829,234.551 C712.83,237.892,715.535,240.596,718.875,240.597 C722.215,240.596,724.919,237.892,724.921,234.551 C724.919,231.211,722.215,228.507,718.875,228.505 z"/>
    </g>
    <g id="Group-2">
      <path id="Path_18" style="fill:#ffffff;fill-opacity:1;fill-rule:evenodd;opacity:1;stroke:none;" d="M628.983,135.983 C632.069,135.983,634.571,138.485,634.571,141.572 C634.571,144.658,632.069,147.16,628.983,147.16 C625.896,147.16,623.394,144.658,623.394,141.572 C623.394,138.485,625.896,135.983,628.983,135.983 z"/>
      <path id="Path_19" style="fill:#ffffff;fill-opacity:1;fill-rule:nonzero;opacity:1;stroke:none;" d="M628.983,136.44 C631.815,136.439,634.115,138.739,634.114,141.572 C634.115,144.404,631.815,146.704,628.983,146.703 C626.15,146.704,623.85,144.404,623.851,141.572 C623.85,138.739,626.15,136.439,628.983,136.44 z M628.983,135.526 C625.642,135.527,622.938,138.231,622.937,141.572 C622.938,144.912,625.642,147.616,628.983,147.617 C632.323,147.616,635.027,144.912,635.028,141.572 C635.027,138.231,632.323,135.527,628.983,135.526 z"/>
    </g>
    <g id="Group-3">
      <path id="Path_20" style="fill:#ffffff;fill-opacity:1;fill-rule:evenodd;opacity:1;stroke:none;" d="M651.87,135.92 C654.957,135.92,657.459,138.422,657.459,141.508 C657.459,144.595,654.957,147.097,651.87,147.097 C648.784,147.097,646.282,144.595,646.282,141.508 C646.282,138.422,648.784,135.92,651.87,135.92 z"/>
      <path id="Path_21" style="fill:#ffffff;fill-opacity:1;fill-rule:nonzero;opacity:1;stroke:none;" d="M651.87,136.377 C654.703,136.376,657.003,138.676,657.002,141.508 C657.003,144.341,654.703,146.641,651.87,146.639 C649.038,146.641,646.738,144.341,646.739,141.508 C646.738,138.676,649.038,136.376,651.87,136.377 z M651.87,135.462 C648.53,135.464,645.826,138.168,645.825,141.508 C645.826,144.849,648.53,147.553,651.87,147.554 C655.211,147.553,657.915,144.849,657.916,141.508 C657.915,138.168,655.211,135.464,651.87,135.462 z"/>
    </g>
    <path id="Path" style="fill:#ffffff;fill-opacity:1;fill-rule:nonzero;opacity:1;stroke:none;" d="M690.932,261.401 C696.147,264.364,702.183,266.723,708.812,266.893 C708.877,266.894,708.869,266.894,708.932,266.894 C715.68,266.866,721.792,264.417,726.996,261.37 C729.159,260.126,729.902,257.16,728.624,255.111 C727.457,252.996,724.504,252.201,722.364,253.484 C718.031,256.038,713.361,257.751,708.912,257.747 C708.952,257.748,708.992,257.748,709.032,257.749 C704.515,257.651,699.834,255.953,695.459,253.453 C693.302,252.199,690.361,253.033,689.222,255.163 C687.971,257.229,688.753,260.185,690.932,261.401 z"/>
    <g id="Text-1">
      <path style="fill:#ffffff;fill-opacity:1;fill-rule:nonzero;opacity:1;stroke:none;" d="M639.962,197.048 C632.389,197.048,625.579,195.404,619.532,192.117 C613.485,188.83,608.721,183.929,605.24,177.416 C601.758,170.902,600.018,162.958,600.018,153.583 C600.018,143.965,601.819,135.808,605.423,129.111 C609.027,122.415,613.913,117.302,620.082,113.771 C626.25,110.24,633.122,108.475,640.695,108.475 C648.269,108.475,655.049,110.118,661.034,113.406 C667.02,116.693,671.753,121.532,675.235,127.924 C678.716,134.316,680.457,142.26,680.457,151.757 C680.457,161.375,678.686,169.563,675.143,176.32 C671.601,183.077,666.776,188.221,660.668,191.752 C654.56,195.282,647.658,197.048,639.962,197.048 z M640.512,187.003 C645.154,187.003,649.491,185.938,653.522,183.807 C657.553,181.677,660.82,178.085,663.325,173.033 C665.829,167.98,667.081,161.192,667.081,152.67 C667.081,144.634,665.798,138.09,663.233,133.038 C660.668,127.985,657.339,124.302,653.247,121.989 C649.155,119.676,644.788,118.519,640.146,118.519 C635.626,118.519,631.32,119.615,627.228,121.806 C623.135,123.998,619.807,127.59,617.242,132.581 C614.676,137.573,613.394,144.269,613.394,152.67 C613.394,160.827,614.707,167.432,617.333,172.485 C619.959,177.537,623.349,181.22,627.503,183.533 C631.656,185.847,635.992,187.003,640.512,187.003 z"/>
    </g>
  </g>
</svg>
